<?xml version="1.0" standalone="no"?>
<!DOCTYPE svg PUBLIC "-//W3C//DTD SVG 20010904//EN"
 "http://www.w3.org/TR/2001/REC-SVG-20010904/DTD/svg10.dtd">
<svg version="1.0" xmlns="http://www.w3.org/2000/svg"
 width="380.000000pt" height="591.000000pt" viewBox="0 0 380.000000 591.000000"
 preserveAspectRatio="xMidYMid meet">
<metadata>
Created by potrace 1.16, written by Peter Selinger 2001-2019
</metadata>
<g transform="translate(0.000000,591.000000) scale(0.100000,-0.100000)"
fill="#181815" stroke="none">
<path d="M1950 5849 c-217 -50 -394 -127 -480 -208 l-50 -47 0 -66 c0 -46 -4
-67 -14 -71 -15 -6 -103 -132 -133 -192 -36 -70 -63 -167 -63 -226 0 -68 38
-207 80 -289 26 -52 30 -70 30 -142 0 -45 4 -120 10 -167 5 -47 14 -129 20
-181 11 -106 41 -195 103 -305 22 -38 42 -88 45 -112 4 -40 3 -42 -29 -51 -77
-23 -159 -57 -311 -127 -88 -41 -179 -80 -202 -87 -69 -19 -260 -113 -348
-171 -104 -68 -171 -128 -247 -223 -95 -118 -165 -288 -211 -513 -34 -167 -60
-271 -86 -339 -27 -71 -30 -122 -12 -155 7 -12 15 -73 18 -135 6 -138 11 -145
110 -140 l64 3 9 -45 c5 -25 6 -135 3 -245 -5 -187 -4 -197 10 -155 12 35 15
101 16 287 l2 243 40 -7 c23 -3 75 -18 116 -33 41 -15 98 -33 127 -39 38 -10
53 -18 57 -34 11 -40 6 -68 -19 -123 -14 -30 -25 -63 -25 -73 0 -27 -21 -81
-31 -81 -5 0 -9 -6 -9 -14 0 -7 -8 -16 -19 -19 -37 -9 -33 -114 6 -155 7 -8
18 -23 24 -34 15 -28 14 -174 -2 -225 -11 -35 -10 -46 1 -70 13 -26 26 -66 51
-153 12 -42 12 -181 0 -232 -6 -24 -5 -40 2 -47 15 -15 19 -163 6 -229 -9 -44
-8 -56 4 -65 10 -8 16 -40 20 -104 4 -60 11 -101 21 -115 9 -12 16 -41 16 -64
0 -80 -99 -74 1136 -74 l1099 0 13 21 c8 12 16 62 19 113 4 63 10 95 20 103
12 9 13 21 4 65 -13 66 -9 214 6 229 7 7 8 23 2 47 -12 51 -12 190 0 232 25
87 38 127 51 153 11 24 12 35 1 70 -16 51 -17 197 -2 225 6 11 17 26 24 34 39
41 43 146 6 155 -11 3 -19 12 -19 19 0 8 -4 14 -9 14 -10 0 -31 54 -31 81 0
10 -11 43 -25 73 -25 55 -30 83 -19 123 4 16 19 24 57 34 29 6 88 25 131 40
44 16 89 29 100 29 11 0 41 18 66 39 26 22 85 58 131 80 158 75 207 140 188
248 -5 32 -18 121 -29 198 -28 207 -99 511 -128 548 -5 6 -24 52 -42 101 -45
120 -96 195 -199 295 -75 73 -101 91 -196 136 -60 28 -129 57 -151 63 -23 7
-120 49 -215 93 -96 44 -195 89 -222 99 -48 18 -70 13 -41 -11 57 -47 68 -151
29 -260 -61 -170 -155 -260 -329 -314 -80 -25 -98 -27 -195 -22 -159 7 -280
55 -398 156 -80 68 -101 106 -128 234 -3 15 -3 38 1 52 5 21 11 24 39 20 31
-4 34 -1 48 38 18 50 25 72 31 111 3 16 12 36 19 44 13 12 19 11 46 -3 35 -18
90 -73 91 -91 0 -6 12 -17 28 -24 15 -8 39 -26 53 -42 28 -28 39 -27 39 3 0
16 4 17 31 7 29 -10 77 -8 204 10 79 11 100 21 167 76 31 25 60 46 63 46 4 0
38 32 75 72 53 55 81 96 124 183 71 145 103 228 110 289 7 61 -1 54 -26 -21
-21 -60 -46 -93 -72 -93 -9 0 -18 -12 -21 -27 -3 -16 -12 -39 -20 -53 -8 -14
-24 -46 -36 -73 -12 -26 -24 -45 -27 -43 -2 3 -13 1 -23 -4 -27 -15 -30 1 -14
64 20 75 19 109 -3 136 -16 20 -24 22 -58 15 l-39 -8 33 -9 c27 -7 32 -13 26
-26 -4 -9 -10 -44 -14 -77 -4 -33 -15 -84 -24 -113 -10 -30 -15 -57 -12 -60 8
-8 -25 -42 -41 -42 -7 0 -13 -11 -13 -24 0 -29 -45 -86 -68 -86 -10 -1 -34 -7
-56 -15 -37 -13 -39 -12 -62 13 -29 33 -30 55 -4 98 13 20 17 35 11 39 -6 3
-44 10 -85 14 -81 9 -100 17 -92 36 2 7 -4 21 -15 31 -13 12 -19 28 -17 48 2
24 -1 30 -14 28 -18 -3 -42 31 -35 51 2 7 35 17 73 22 53 8 69 14 68 27 -1 12
19 19 85 33 126 25 121 23 121 56 0 40 -23 46 -76 20 -25 -11 -53 -21 -62 -21
-19 0 -62 35 -62 50 0 5 -12 9 -27 8 -16 0 -48 3 -73 7 -43 7 -47 5 -58 -19
-6 -14 -20 -26 -29 -27 -62 -4 -83 -9 -121 -29 l-42 -22 -34 26 c-40 30 -54
66 -60 160 -7 91 9 169 33 161 9 -3 41 5 71 16 30 12 72 20 93 20 31 -2 39 2
47 24 5 14 16 25 25 25 8 0 15 9 15 19 0 26 15 34 29 17 9 -10 7 -17 -5 -26
-13 -12 -9 -16 37 -33 l53 -20 23 27 c34 40 31 92 -7 133 l-31 32 21 21 c28
28 22 52 -15 64 -17 4 -41 14 -55 21 -14 6 -59 18 -100 25 -41 7 -82 19 -91
27 -20 17 -33 102 -31 202 1 87 5 101 29 101 10 0 23 8 30 19 36 57 189 97
338 87 93 -6 115 -12 215 -59 129 -61 198 -86 266 -98 92 -16 106 -35 115
-157 4 -53 13 -126 18 -162 6 -36 11 -93 11 -127 0 -34 4 -64 8 -67 25 -15
114 112 158 224 48 126 56 215 25 300 -18 48 -21 72 -16 113 6 50 5 55 -28 95
-20 23 -45 68 -57 100 -27 72 -39 85 -125 135 -38 23 -92 60 -120 84 -109 94
-275 124 -455 82z m-267 -3374 c16 -16 21 -60 37 -310 6 -88 14 -196 19 -240
l8 -80 -53 -52 c-32 -30 -74 -59 -102 -69 -26 -9 -74 -28 -107 -42 -40 -16
-71 -22 -95 -19 -49 7 -221 91 -261 128 -18 16 -39 34 -48 39 -11 5 -27 50
-45 127 -16 65 -37 148 -48 186 -10 37 -25 111 -32 165 -15 108 -10 128 33
118 14 -3 70 -13 123 -22 95 -17 99 -17 220 5 119 22 237 53 268 72 23 13 67
11 83 -6z m-927 -930 c11 -370 -15 -615 -80 -755 -16 -34 -16 -32 -11 75 3 61
12 196 20 300 8 105 15 242 15 305 0 88 22 366 31 400 7 24 19 -137 25 -325z
m2099 59 c8 -76 15 -191 15 -254 0 -63 7 -200 15 -305 8 -104 17 -239 20 -300
5 -107 5 -109 -11 -75 -64 137 -90 384 -80 745 6 210 15 340 23 332 2 -2 10
-67 18 -143z"/>
<path d="M2188 4938 c-20 -5 -44 -18 -54 -29 -28 -31 -5 -43 79 -40 39 1 116
3 170 4 86 1 97 4 97 19 0 10 -9 27 -20 38 -18 18 -33 20 -127 19 -60 -1 -125
-5 -145 -11z"/>
<path d="M2190 4789 c-13 -6 -33 -17 -42 -26 -22 -20 -24 -63 -3 -63 8 0 15 7
15 15 0 16 42 43 47 29 15 -43 31 -59 58 -59 23 0 33 7 43 28 16 32 36 35 56
6 14 -20 46 -21 46 -2 0 11 -110 53 -137 53 -11 0 -26 7 -33 15 -14 17 -16 17
-50 4z"/>
<path d="M250 1184 c0 -164 26 -405 59 -554 26 -115 39 -193 87 -517 16 -112
17 -113 43 -113 25 0 27 3 23 32 -3 19 2 44 13 63 15 29 15 35 2 61 -20 39
-32 121 -19 137 5 6 12 32 16 57 6 44 6 46 -25 57 -28 11 -31 15 -25 40 4 15
14 33 22 39 16 13 19 34 4 34 -6 0 -10 28 -10 64 0 59 -2 65 -22 68 -17 2 -23
10 -24 28 0 14 -4 34 -9 44 -5 11 -4 31 2 47 12 31 8 39 -19 39 -16 0 -18 9
-18 69 0 78 -6 101 -25 101 -11 0 -13 17 -12 70 1 43 -2 73 -9 78 -21 14 -36
55 -39 109 -5 102 -15 66 -15 -53z"/>
<path d="M3311 1175 c-1 -5 -4 -33 -6 -61 -2 -50 -18 -93 -39 -106 -7 -5 -10
-35 -9 -78 1 -53 -1 -70 -12 -70 -19 0 -25 -23 -25 -101 0 -60 -2 -69 -18 -69
-27 0 -31 -8 -19 -39 6 -16 7 -36 2 -47 -5 -10 -9 -30 -9 -44 -1 -18 -7 -26
-23 -28 -21 -3 -23 -9 -23 -68 0 -36 -4 -64 -10 -64 -15 0 -12 -21 4 -34 8 -6
18 -24 22 -39 6 -25 3 -29 -25 -40 -31 -11 -31 -13 -25 -57 4 -25 11 -51 16
-57 13 -16 1 -97 -18 -135 -8 -15 -14 -29 -14 -33 0 -3 22 -5 49 -5 l49 0 6
58 c15 127 48 324 76 447 36 161 62 424 58 570 -2 61 -5 106 -7 100z"/>
</g>
</svg>
