<?xml version="1.0" standalone="no"?>
<!DOCTYPE svg PUBLIC "-//W3C//DTD SVG 20010904//EN"
 "http://www.w3.org/TR/2001/REC-SVG-20010904/DTD/svg10.dtd">
<svg version="1.0" xmlns="http://www.w3.org/2000/svg"
 width="100%" height="100%" viewBox="0 0 257.000000 400.000000"
 preserveAspectRatio="xMidYMid meet">
<g transform="translate(0.000000,400.000000) scale(0.100000,-0.100000)"
fill="#181815" stroke="none">
<path d="M1285 4000 l-1285 0 0 -2000 0 -2000 1285 0 1285 0 0 2000 0 2000
-1285 0z"/>
</g>
<g transform="translate(0.000000,400.000000) scale(0.100000,-0.100000)"
fill="#fff"  stroke="none">
<path d="M1285 4000 l-1285 0 0 -2000 0 -2000 136 0 137 0 -7 38 c-4 20 -11
71 -16 112 -5 41 -14 95 -20 120 -5 25 -17 83 -26 130 -9 47 -23 128 -30 180
-7 52 -13 114 -14 138 0 36 3 43 18 40 12 -2 18 -15 20 -48 2 -25 7 -49 13
-55 5 -5 9 -30 9 -56 0 -29 6 -51 15 -59 8 -7 15 -27 15 -45 0 -19 8 -39 20
-50 16 -15 20 -31 20 -86 0 -37 5 -71 10 -74 6 -4 10 -63 10 -146 l0 -139 80
0 c44 0 80 2 80 5 0 3 -4 13 -9 23 -5 9 -14 59 -20 111 -7 51 -16 102 -21 112
-6 10 -10 96 -10 191 0 113 -5 185 -13 208 -7 19 -20 50 -30 69 -9 19 -17 44
-17 57 0 13 5 26 10 29 6 4 10 58 10 130 0 72 4 126 10 130 5 3 10 30 10 60 0
30 4 57 10 60 6 3 10 31 10 61 0 53 0 54 -29 54 -17 0 -33 5 -36 10 -3 6 -16
10 -28 10 -13 0 -31 6 -42 14 -11 7 -31 16 -45 19 -14 3 -35 9 -47 12 -21 7
-23 4 -23 -28 0 -32 -3 -35 -34 -41 -18 -4 -45 -2 -60 4 -25 9 -26 12 -26 89
0 44 -4 83 -10 86 -5 3 -10 23 -10 44 0 21 6 51 14 66 8 15 22 61 31 103 9 43
20 91 26 108 5 17 9 39 9 51 0 11 9 49 20 84 12 35 25 73 29 84 5 11 19 42 32
70 15 30 58 84 109 135 47 47 104 95 128 108 23 12 59 31 80 41 20 11 58 29
84 40 26 12 52 21 58 21 6 0 62 25 126 55 64 30 118 55 120 55 2 0 28 9 59 21
48 18 55 24 55 47 0 14 -20 67 -44 117 -32 66 -46 111 -54 170 -6 44 -14 130
-18 190 -3 61 -12 121 -19 135 -7 14 -22 54 -34 89 -12 35 -21 86 -21 112 0
27 5 61 11 76 6 15 26 56 43 91 17 34 34 62 38 62 5 0 8 6 8 14 0 7 10 20 22
28 17 11 22 26 24 63 1 42 6 53 34 76 17 15 59 41 93 57 34 17 83 38 109 46
25 8 76 22 113 31 36 8 93 15 125 15 41 0 76 -7 112 -24 29 -13 66 -35 83 -49
16 -15 42 -32 57 -38 15 -6 28 -15 28 -20 0 -5 6 -9 13 -9 8 0 21 -8 29 -17 8
-10 21 -34 28 -53 7 -19 24 -50 38 -68 19 -26 23 -42 19 -68 -4 -23 1 -51 14
-82 14 -33 19 -58 15 -84 -4 -21 -13 -59 -22 -85 -8 -27 -22 -62 -29 -79 -8
-17 -28 -46 -44 -64 -16 -19 -32 -32 -34 -30 -2 3 -9 46 -15 96 -7 50 -12 110
-12 134 0 26 -8 53 -20 70 -13 19 -32 29 -58 34 -22 3 -64 17 -95 31 -30 14
-61 32 -67 40 -7 8 -23 15 -36 15 -12 0 -26 5 -29 10 -4 6 -60 10 -135 10
l-128 0 -51 -46 -51 -46 0 -87 c0 -54 5 -92 12 -99 7 -7 36 -12 64 -12 29 0
56 -5 59 -11 4 -5 18 -14 31 -19 19 -7 24 -17 24 -43 0 -18 5 -38 11 -44 6 -6
9 -23 7 -39 -2 -22 -9 -30 -26 -32 -13 -2 -33 5 -44 15 -19 17 -20 17 -33 0
-6 -9 -24 -17 -39 -17 -17 0 -26 5 -26 16 0 9 -6 14 -12 12 -7 -3 -13 -14 -13
-25 0 -12 -20 -39 -47 -63 -48 -41 -48 -42 -48 -104 0 -56 3 -65 29 -90 26
-25 33 -27 77 -21 27 3 60 11 74 17 14 6 33 14 42 19 10 5 28 9 41 9 13 0 32
-9 42 -20 10 -11 28 -20 41 -20 13 0 26 5 29 10 3 6 17 10 31 10 19 0 24 -5
24 -24 0 -21 -5 -24 -50 -28 -37 -4 -58 -12 -79 -32 -19 -18 -38 -26 -64 -26
-20 0 -37 -4 -37 -9 0 -5 7 -16 15 -25 8 -8 15 -20 15 -27 0 -7 11 -27 26 -46
15 -20 34 -33 48 -33 12 0 27 -5 34 -12 7 -7 12 -23 12 -37 0 -15 7 -35 15
-45 12 -16 18 -17 27 -8 7 7 24 12 39 12 20 0 36 11 58 37 17 21 31 48 31 60
0 12 9 38 20 58 11 20 20 48 20 63 0 16 5 33 12 40 7 7 16 12 20 12 4 0 8 -16
8 -35 0 -22 5 -35 13 -35 7 0 36 24 65 53 29 29 52 60 52 70 0 9 5 17 10 17 6
0 10 -4 10 -10 0 -5 -5 -22 -11 -37 -7 -15 -23 -50 -36 -78 -13 -27 -35 -70
-48 -93 -12 -24 -49 -68 -82 -98 -32 -30 -61 -54 -64 -54 -3 0 -19 -11 -35
-25 -21 -18 -41 -25 -71 -25 -23 0 -45 -4 -48 -10 -3 -5 -25 -10 -49 -10 -23
0 -46 4 -51 9 -6 6 -30 11 -55 13 -40 3 -47 7 -65 40 -13 25 -27 38 -41 38
-11 0 -28 -8 -37 -18 -10 -10 -17 -25 -17 -33 0 -9 -12 -27 -27 -41 -16 -14
-36 -28 -45 -31 -10 -4 -18 -14 -18 -24 0 -10 8 -40 17 -68 11 -30 38 -69 68
-101 28 -29 69 -62 93 -74 23 -12 59 -27 80 -33 20 -5 70 -12 109 -14 56 -4
88 0 143 18 51 16 85 35 119 65 29 26 59 67 79 108 23 47 32 80 32 115 0 39
-6 56 -26 80 -19 23 -22 31 -10 31 8 0 25 -4 38 -9 13 -5 41 -14 63 -21 22 -7
65 -24 95 -37 30 -14 92 -42 137 -64 45 -21 88 -39 96 -39 7 0 17 -3 21 -7 3
-4 22 -12 41 -19 19 -6 67 -31 107 -55 40 -23 98 -68 128 -99 40 -40 61 -72
76 -115 12 -33 27 -78 33 -100 6 -22 19 -71 27 -110 9 -38 20 -97 24 -130 5
-33 13 -96 20 -139 6 -43 9 -91 5 -105 -4 -14 -16 -37 -28 -49 -12 -13 -47
-35 -77 -49 -30 -14 -76 -40 -103 -59 -26 -19 -50 -34 -53 -34 -3 0 -18 -8
-32 -18 -15 -10 -46 -24 -68 -30 -23 -7 -53 -12 -67 -12 -13 0 -28 -7 -31 -16
-3 -9 -6 -31 -6 -49 0 -19 -5 -37 -10 -40 -6 -3 -10 -30 -10 -59 0 -28 -4 -56
-9 -62 -5 -5 -12 -29 -16 -54 -4 -25 -9 -178 -12 -340 -2 -168 -8 -299 -13
-304 -6 -6 -10 -25 -10 -42 0 -18 -4 -36 -10 -39 -5 -3 -10 -44 -10 -89 0 -62
-4 -87 -15 -96 -8 -7 -15 -25 -15 -41 l0 -29 320 0 320 0 0 2000 0 2000 -1285
0z m275 -640 c53 0 91 -5 98 -12 7 -7 12 -18 12 -25 0 -10 -27 -13 -115 -13
-63 0 -115 3 -115 7 0 3 7 15 17 25 13 15 31 18 103 18z m-35 -130 c32 0 36
-3 33 -22 -2 -17 -11 -24 -30 -26 -16 -2 -28 1 -28 7 0 5 -3 16 -6 25 -5 13 1
16 31 16z m-64 -400 c12 0 19 -5 17 -12 -3 -7 -12 -14 -21 -16 -10 -2 -17 3
-17 12 0 10 9 16 21 16z"/>
<path d="M1110 1687 c-14 1 -52 -7 -85 -18 -33 -11 -82 -22 -110 -25 -27 -3
-62 -10 -76 -16 -18 -6 -40 -6 -65 0 -22 6 -62 13 -90 17 l-52 7 5 -69 c2 -37
8 -79 13 -93 4 -14 12 -43 18 -65 6 -22 18 -69 28 -105 11 -42 27 -73 43 -88
14 -12 56 -38 92 -56 37 -18 79 -36 95 -39 16 -3 43 0 59 8 17 7 46 18 65 25
19 7 54 27 78 44 l43 31 -6 90 c-3 50 -11 149 -18 220 -12 128 -12 130 -37
132z"/>
<path d="M502 1140 c-5 116 -9 153 -15 125 -4 -22 -12 -114 -17 -205 -6 -91
-15 -230 -20 -310 -5 -80 -12 -153 -15 -163 -4 -9 -4 -29 0 -45 6 -25 8 -23
25 28 9 30 22 73 28 95 6 22 13 101 16 175 3 74 2 209 -2 300z"/>
<path d="M1941 1070 c-3 25 -9 41 -13 35 -3 -5 -12 -45 -19 -87 -10 -61 -10
-85 0 -118 6 -22 16 -38 20 -36 4 3 10 40 13 83 3 43 3 98 -1 123z"/>
</g>
<g transform="translate(0.000000,400.000000) scale(0.100000,-0.100000)"
fill="#ffffff"  fill-opacity="0" stroke="none">
<path d="M1285 4000 l-1285 0 0 -2000 0 -2000 136 0 137 0 -7 38 c-4 20 -11
71 -16 112 -5 41 -14 95 -20 120 -5 25 -17 83 -26 130 -9 47 -23 128 -30 180
-7 52 -13 114 -14 138 0 36 3 43 18 40 12 -2 18 -15 20 -48 2 -25 7 -49 13
-55 5 -5 9 -30 9 -56 0 -29 6 -51 15 -59 8 -7 15 -27 15 -45 0 -19 8 -39 20
-50 16 -15 20 -31 20 -86 0 -37 5 -71 10 -74 6 -4 10 -63 10 -146 l0 -139 80
0 c44 0 80 2 80 5 0 3 -4 13 -9 23 -5 9 -14 59 -20 111 -7 51 -16 102 -21 112
-6 10 -10 96 -10 191 0 113 -5 185 -13 208 -7 19 -20 50 -30 69 -9 19 -17 44
-17 57 0 13 5 26 10 29 6 4 10 58 10 130 0 72 4 126 10 130 5 3 10 30 10 60 0
30 4 57 10 60 6 3 10 31 10 61 0 53 0 54 -29 54 -17 0 -33 5 -36 10 -3 6 -16
10 -28 10 -13 0 -31 6 -42 14 -11 7 -31 16 -45 19 -14 3 -35 9 -47 12 -21 7
-23 4 -23 -28 0 -32 -3 -35 -34 -41 -18 -4 -45 -2 -60 4 -25 9 -26 12 -26 89
0 44 -4 83 -10 86 -5 3 -10 23 -10 44 0 21 6 51 14 66 8 15 22 61 31 103 9 43
20 91 26 108 5 17 9 39 9 51 0 11 9 49 20 84 12 35 25 73 29 84 5 11 19 42 32
70 15 30 58 84 109 135 47 47 104 95 128 108 23 12 59 31 80 41 20 11 58 29
84 40 26 12 52 21 58 21 6 0 62 25 126 55 64 30 118 55 120 55 2 0 28 9 59 21
48 18 55 24 55 47 0 14 -20 67 -44 117 -32 66 -46 111 -54 170 -6 44 -14 130
-18 190 -3 61 -12 121 -19 135 -7 14 -22 54 -34 89 -12 35 -21 86 -21 112 0
27 5 61 11 76 6 15 26 56 43 91 17 34 34 62 38 62 5 0 8 6 8 14 0 7 10 20 22
28 17 11 22 26 24 63 1 42 6 53 34 76 17 15 59 41 93 57 34 17 83 38 109 46
25 8 76 22 113 31 36 8 93 15 125 15 41 0 76 -7 112 -24 29 -13 66 -35 83 -49
16 -15 42 -32 57 -38 15 -6 28 -15 28 -20 0 -5 6 -9 13 -9 8 0 21 -8 29 -17 8
-10 21 -34 28 -53 7 -19 24 -50 38 -68 19 -26 23 -42 19 -68 -4 -23 1 -51 14
-82 14 -33 19 -58 15 -84 -4 -21 -13 -59 -22 -85 -8 -27 -22 -62 -29 -79 -8
-17 -28 -46 -44 -64 -16 -19 -32 -32 -34 -30 -2 3 -9 46 -15 96 -7 50 -12 110
-12 134 0 26 -8 53 -20 70 -13 19 -32 29 -58 34 -22 3 -64 17 -95 31 -30 14
-61 32 -67 40 -7 8 -23 15 -36 15 -12 0 -26 5 -29 10 -4 6 -60 10 -135 10
l-128 0 -51 -46 -51 -46 0 -87 c0 -54 5 -92 12 -99 7 -7 36 -12 64 -12 29 0
56 -5 59 -11 4 -5 18 -14 31 -19 19 -7 24 -17 24 -43 0 -18 5 -38 11 -44 6 -6
9 -23 7 -39 -2 -22 -9 -30 -26 -32 -13 -2 -33 5 -44 15 -19 17 -20 17 -33 0
-6 -9 -24 -17 -39 -17 -17 0 -26 5 -26 16 0 9 -6 14 -12 12 -7 -3 -13 -14 -13
-25 0 -12 -20 -39 -47 -63 -48 -41 -48 -42 -48 -104 0 -56 3 -65 29 -90 26
-25 33 -27 77 -21 27 3 60 11 74 17 14 6 33 14 42 19 10 5 28 9 41 9 13 0 32
-9 42 -20 10 -11 28 -20 41 -20 13 0 26 5 29 10 3 6 17 10 31 10 19 0 24 -5
24 -24 0 -21 -5 -24 -50 -28 -37 -4 -58 -12 -79 -32 -19 -18 -38 -26 -64 -26
-20 0 -37 -4 -37 -9 0 -5 7 -16 15 -25 8 -8 15 -20 15 -27 0 -7 11 -27 26 -46
15 -20 34 -33 48 -33 12 0 27 -5 34 -12 7 -7 12 -23 12 -37 0 -15 7 -35 15
-45 12 -16 18 -17 27 -8 7 7 24 12 39 12 20 0 36 11 58 37 17 21 31 48 31 60
0 12 9 38 20 58 11 20 20 48 20 63 0 16 5 33 12 40 7 7 16 12 20 12 4 0 8 -16
8 -35 0 -22 5 -35 13 -35 7 0 36 24 65 53 29 29 52 60 52 70 0 9 5 17 10 17 6
0 10 -4 10 -10 0 -5 -5 -22 -11 -37 -7 -15 -23 -50 -36 -78 -13 -27 -35 -70
-48 -93 -12 -24 -49 -68 -82 -98 -32 -30 -61 -54 -64 -54 -3 0 -19 -11 -35
-25 -21 -18 -41 -25 -71 -25 -23 0 -45 -4 -48 -10 -3 -5 -25 -10 -49 -10 -23
0 -46 4 -51 9 -6 6 -30 11 -55 13 -40 3 -47 7 -65 40 -13 25 -27 38 -41 38
-11 0 -28 -8 -37 -18 -10 -10 -17 -25 -17 -33 0 -9 -12 -27 -27 -41 -16 -14
-36 -28 -45 -31 -10 -4 -18 -14 -18 -24 0 -10 8 -40 17 -68 11 -30 38 -69 68
-101 28 -29 69 -62 93 -74 23 -12 59 -27 80 -33 20 -5 70 -12 109 -14 56 -4
88 0 143 18 51 16 85 35 119 65 29 26 59 67 79 108 23 47 32 80 32 115 0 39
-6 56 -26 80 -19 23 -22 31 -10 31 8 0 25 -4 38 -9 13 -5 41 -14 63 -21 22 -7
65 -24 95 -37 30 -14 92 -42 137 -64 45 -21 88 -39 96 -39 7 0 17 -3 21 -7 3
-4 22 -12 41 -19 19 -6 67 -31 107 -55 40 -23 98 -68 128 -99 40 -40 61 -72
76 -115 12 -33 27 -78 33 -100 6 -22 19 -71 27 -110 9 -38 20 -97 24 -130 5
-33 13 -96 20 -139 6 -43 9 -91 5 -105 -4 -14 -16 -37 -28 -49 -12 -13 -47
-35 -77 -49 -30 -14 -76 -40 -103 -59 -26 -19 -50 -34 -53 -34 -3 0 -18 -8
-32 -18 -15 -10 -46 -24 -68 -30 -23 -7 -53 -12 -67 -12 -13 0 -28 -7 -31 -16
-3 -9 -6 -31 -6 -49 0 -19 -5 -37 -10 -40 -6 -3 -10 -30 -10 -59 0 -28 -4 -56
-9 -62 -5 -5 -12 -29 -16 -54 -4 -25 -9 -178 -12 -340 -2 -168 -8 -299 -13
-304 -6 -6 -10 -25 -10 -42 0 -18 -4 -36 -10 -39 -5 -3 -10 -44 -10 -89 0 -62
-4 -87 -15 -96 -8 -7 -15 -25 -15 -41 l0 -29 320 0 320 0 0 2000 0 2000 -1285
0z m275 -640 c53 0 91 -5 98 -12 7 -7 12 -18 12 -25 0 -10 -27 -13 -115 -13
-63 0 -115 3 -115 7 0 3 7 15 17 25 13 15 31 18 103 18z m-35 -130 c32 0 36
-3 33 -22 -2 -17 -11 -24 -30 -26 -16 -2 -28 1 -28 7 0 5 -3 16 -6 25 -5 13 1
16 31 16z m-64 -400 c12 0 19 -5 17 -12 -3 -7 -12 -14 -21 -16 -10 -2 -17 3
-17 12 0 10 9 16 21 16z"/>
<path d="M1110 1687 c-14 1 -52 -7 -85 -18 -33 -11 -82 -22 -110 -25 -27 -3
-62 -10 -76 -16 -18 -6 -40 -6 -65 0 -22 6 -62 13 -90 17 l-52 7 5 -69 c2 -37
8 -79 13 -93 4 -14 12 -43 18 -65 6 -22 18 -69 28 -105 11 -42 27 -73 43 -88
14 -12 56 -38 92 -56 37 -18 79 -36 95 -39 16 -3 43 0 59 8 17 7 46 18 65 25
19 7 54 27 78 44 l43 31 -6 90 c-3 50 -11 149 -18 220 -12 128 -12 130 -37
132z"/>
<path d="M502 1140 c-5 116 -9 153 -15 125 -4 -22 -12 -114 -17 -205 -6 -91
-15 -230 -20 -310 -5 -80 -12 -153 -15 -163 -4 -9 -4 -29 0 -45 6 -25 8 -23
25 28 9 30 22 73 28 95 6 22 13 101 16 175 3 74 2 209 -2 300z"/>
<path d="M1941 1070 c-3 25 -9 41 -13 35 -3 -5 -12 -45 -19 -87 -10 -61 -10
-85 0 -118 6 -22 16 -38 20 -36 4 3 10 40 13 83 3 43 3 98 -1 123z"/>
</g>
<g transform="translate(0.000000,400.000000) scale(0.100000,-0.100000)"
fill="#ffffff"  fill-opacity="0" stroke="none">
<path d="M1285 4000 l-1285 0 0 -2000 0 -2000 136 0 137 0 -7 38 c-4 20 -11
71 -16 112 -5 41 -14 95 -20 120 -5 25 -17 83 -26 130 -9 47 -23 128 -30 180
-7 52 -13 114 -14 138 0 36 3 43 18 40 12 -2 18 -15 20 -48 2 -25 7 -49 13
-55 5 -5 9 -30 9 -56 0 -29 6 -51 15 -59 8 -7 15 -27 15 -45 0 -19 8 -39 20
-50 16 -15 20 -31 20 -86 0 -37 5 -71 10 -74 6 -4 10 -63 10 -146 l0 -139 80
0 c44 0 80 2 80 5 0 3 -4 13 -9 23 -5 9 -14 59 -20 111 -7 51 -16 102 -21 112
-6 10 -10 96 -10 191 0 113 -5 185 -13 208 -7 19 -20 50 -30 69 -9 19 -17 44
-17 57 0 13 5 26 10 29 6 4 10 58 10 130 0 72 4 126 10 130 5 3 10 30 10 60 0
30 4 57 10 60 6 3 10 31 10 61 0 53 0 54 -29 54 -17 0 -33 5 -36 10 -3 6 -16
10 -28 10 -13 0 -31 6 -42 14 -11 7 -31 16 -45 19 -14 3 -35 9 -47 12 -21 7
-23 4 -23 -28 0 -32 -3 -35 -34 -41 -18 -4 -45 -2 -60 4 -25 9 -26 12 -26 89
0 44 -4 83 -10 86 -5 3 -10 23 -10 44 0 21 6 51 14 66 8 15 22 61 31 103 9 43
20 91 26 108 5 17 9 39 9 51 0 11 9 49 20 84 12 35 25 73 29 84 5 11 19 42 32
70 15 30 58 84 109 135 47 47 104 95 128 108 23 12 59 31 80 41 20 11 58 29
84 40 26 12 52 21 58 21 6 0 62 25 126 55 64 30 118 55 120 55 2 0 28 9 59 21
48 18 55 24 55 47 0 14 -20 67 -44 117 -32 66 -46 111 -54 170 -6 44 -14 130
-18 190 -3 61 -12 121 -19 135 -7 14 -22 54 -34 89 -12 35 -21 86 -21 112 0
27 5 61 11 76 6 15 26 56 43 91 17 34 34 62 38 62 5 0 8 6 8 14 0 7 10 20 22
28 17 11 22 26 24 63 1 42 6 53 34 76 17 15 59 41 93 57 34 17 83 38 109 46
25 8 76 22 113 31 36 8 93 15 125 15 41 0 76 -7 112 -24 29 -13 66 -35 83 -49
16 -15 42 -32 57 -38 15 -6 28 -15 28 -20 0 -5 6 -9 13 -9 8 0 21 -8 29 -17 8
-10 21 -34 28 -53 7 -19 24 -50 38 -68 19 -26 23 -42 19 -68 -4 -23 1 -51 14
-82 14 -33 19 -58 15 -84 -4 -21 -13 -59 -22 -85 -8 -27 -22 -62 -29 -79 -8
-17 -28 -46 -44 -64 -16 -19 -32 -32 -34 -30 -2 3 -9 46 -15 96 -7 50 -12 110
-12 134 0 26 -8 53 -20 70 -13 19 -32 29 -58 34 -22 3 -64 17 -95 31 -30 14
-61 32 -67 40 -7 8 -23 15 -36 15 -12 0 -26 5 -29 10 -4 6 -60 10 -135 10
l-128 0 -51 -46 -51 -46 0 -87 c0 -54 5 -92 12 -99 7 -7 36 -12 64 -12 29 0
56 -5 59 -11 4 -5 18 -14 31 -19 19 -7 24 -17 24 -43 0 -18 5 -38 11 -44 6 -6
9 -23 7 -39 -2 -22 -9 -30 -26 -32 -13 -2 -33 5 -44 15 -19 17 -20 17 -33 0
-6 -9 -24 -17 -39 -17 -17 0 -26 5 -26 16 0 9 -6 14 -12 12 -7 -3 -13 -14 -13
-25 0 -12 -20 -39 -47 -63 -48 -41 -48 -42 -48 -104 0 -56 3 -65 29 -90 26
-25 33 -27 77 -21 27 3 60 11 74 17 14 6 33 14 42 19 10 5 28 9 41 9 13 0 32
-9 42 -20 10 -11 28 -20 41 -20 13 0 26 5 29 10 3 6 17 10 31 10 19 0 24 -5
24 -24 0 -21 -5 -24 -50 -28 -37 -4 -58 -12 -79 -32 -19 -18 -38 -26 -64 -26
-20 0 -37 -4 -37 -9 0 -5 7 -16 15 -25 8 -8 15 -20 15 -27 0 -7 11 -27 26 -46
15 -20 34 -33 48 -33 12 0 27 -5 34 -12 7 -7 12 -23 12 -37 0 -15 7 -35 15
-45 12 -16 18 -17 27 -8 7 7 24 12 39 12 20 0 36 11 58 37 17 21 31 48 31 60
0 12 9 38 20 58 11 20 20 48 20 63 0 16 5 33 12 40 7 7 16 12 20 12 4 0 8 -16
8 -35 0 -22 5 -35 13 -35 7 0 36 24 65 53 29 29 52 60 52 70 0 9 5 17 10 17 6
0 10 -4 10 -10 0 -5 -5 -22 -11 -37 -7 -15 -23 -50 -36 -78 -13 -27 -35 -70
-48 -93 -12 -24 -49 -68 -82 -98 -32 -30 -61 -54 -64 -54 -3 0 -19 -11 -35
-25 -21 -18 -41 -25 -71 -25 -23 0 -45 -4 -48 -10 -3 -5 -25 -10 -49 -10 -23
0 -46 4 -51 9 -6 6 -30 11 -55 13 -40 3 -47 7 -65 40 -13 25 -27 38 -41 38
-11 0 -28 -8 -37 -18 -10 -10 -17 -25 -17 -33 0 -9 -12 -27 -27 -41 -16 -14
-36 -28 -45 -31 -10 -4 -18 -14 -18 -24 0 -10 8 -40 17 -68 11 -30 38 -69 68
-101 28 -29 69 -62 93 -74 23 -12 59 -27 80 -33 20 -5 70 -12 109 -14 56 -4
88 0 143 18 51 16 85 35 119 65 29 26 59 67 79 108 23 47 32 80 32 115 0 39
-6 56 -26 80 -19 23 -22 31 -10 31 8 0 25 -4 38 -9 13 -5 41 -14 63 -21 22 -7
65 -24 95 -37 30 -14 92 -42 137 -64 45 -21 88 -39 96 -39 7 0 17 -3 21 -7 3
-4 22 -12 41 -19 19 -6 67 -31 107 -55 40 -23 98 -68 128 -99 40 -40 61 -72
76 -115 12 -33 27 -78 33 -100 6 -22 19 -71 27 -110 9 -38 20 -97 24 -130 5
-33 13 -96 20 -139 6 -43 9 -91 5 -105 -4 -14 -16 -37 -28 -49 -12 -13 -47
-35 -77 -49 -30 -14 -76 -40 -103 -59 -26 -19 -50 -34 -53 -34 -3 0 -18 -8
-32 -18 -15 -10 -46 -24 -68 -30 -23 -7 -53 -12 -67 -12 -13 0 -28 -7 -31 -16
-3 -9 -6 -31 -6 -49 0 -19 -5 -37 -10 -40 -6 -3 -10 -30 -10 -59 0 -28 -4 -56
-9 -62 -5 -5 -12 -29 -16 -54 -4 -25 -9 -178 -12 -340 -2 -168 -8 -299 -13
-304 -6 -6 -10 -25 -10 -42 0 -18 -4 -36 -10 -39 -5 -3 -10 -44 -10 -89 0 -62
-4 -87 -15 -96 -8 -7 -15 -25 -15 -41 l0 -29 320 0 320 0 0 2000 0 2000 -1285
0z m275 -640 c53 0 91 -5 98 -12 7 -7 12 -18 12 -25 0 -10 -27 -13 -115 -13
-63 0 -115 3 -115 7 0 3 7 15 17 25 13 15 31 18 103 18z m-35 -130 c32 0 36
-3 33 -22 -2 -17 -11 -24 -30 -26 -16 -2 -28 1 -28 7 0 5 -3 16 -6 25 -5 13 1
16 31 16z m-64 -400 c12 0 19 -5 17 -12 -3 -7 -12 -14 -21 -16 -10 -2 -17 3
-17 12 0 10 9 16 21 16z"/>
<path d="M1110 1687 c-14 1 -52 -7 -85 -18 -33 -11 -82 -22 -110 -25 -27 -3
-62 -10 -76 -16 -18 -6 -40 -6 -65 0 -22 6 -62 13 -90 17 l-52 7 5 -69 c2 -37
8 -79 13 -93 4 -14 12 -43 18 -65 6 -22 18 -69 28 -105 11 -42 27 -73 43 -88
14 -12 56 -38 92 -56 37 -18 79 -36 95 -39 16 -3 43 0 59 8 17 7 46 18 65 25
19 7 54 27 78 44 l43 31 -6 90 c-3 50 -11 149 -18 220 -12 128 -12 130 -37
132z"/>
<path d="M502 1140 c-5 116 -9 153 -15 125 -4 -22 -12 -114 -17 -205 -6 -91
-15 -230 -20 -310 -5 -80 -12 -153 -15 -163 -4 -9 -4 -29 0 -45 6 -25 8 -23
25 28 9 30 22 73 28 95 6 22 13 101 16 175 3 74 2 209 -2 300z"/>
<path d="M1941 1070 c-3 25 -9 41 -13 35 -3 -5 -12 -45 -19 -87 -10 -61 -10
-85 0 -118 6 -22 16 -38 20 -36 4 3 10 40 13 83 3 43 3 98 -1 123z"/>
</g>
</svg>
