<?xml version="1.0" standalone="no"?>
<!DOCTYPE svg PUBLIC "-//W3C//DTD SVG 20010904//EN"
 "http://www.w3.org/TR/2001/REC-SVG-20010904/DTD/svg10.dtd">
<svg version="1.0" xmlns="http://www.w3.org/2000/svg"
 width="1202.000000pt" height="1886.000000pt" viewBox="0 0 1202.000000 1886.000000"
 preserveAspectRatio="xMidYMid meet">
<metadata>
Created by potrace 1.16, written by Peter Selinger 2001-2019
</metadata>
<g transform="translate(0.000000,1886.000000) scale(0.100000,-0.100000)"
fill="#181815" stroke="none">
<path d="M6492 18780 c-187 -26 -297 -49 -527 -110 -315 -85 -491 -151 -771
-289 -350 -173 -545 -312 -595 -426 -14 -32 -23 -85 -30 -173 -17 -223 -33
-270 -118 -339 -69 -56 -101 -99 -101 -134 0 -19 -15 -42 -47 -76 -28 -28 -74
-96 -110 -163 -96 -178 -250 -502 -272 -573 -51 -167 -54 -406 -7 -631 29
-138 121 -415 193 -584 68 -160 89 -289 123 -757 71 -974 112 -1175 345 -1670
116 -247 195 -465 195 -540 0 -62 -14 -90 -61 -124 -42 -31 -211 -101 -412
-170 -62 -21 -246 -101 -408 -176 -507 -236 -711 -326 -809 -357 -146 -46
-231 -80 -405 -161 -237 -111 -675 -338 -736 -382 -182 -132 -486 -409 -659
-600 -249 -276 -322 -380 -441 -634 -140 -300 -319 -860 -319 -999 0 -50 -21
-155 -60 -292 -16 -58 -52 -208 -80 -335 -62 -281 -109 -445 -161 -571 -66
-159 -88 -293 -69 -420 12 -79 22 -107 45 -131 22 -21 36 -168 44 -448 9 -318
10 -322 99 -363 98 -45 323 -43 413 4 36 18 47 53 52 169 7 153 8 153 137 118
47 -13 123 -33 170 -44 81 -20 159 -53 281 -118 40 -22 78 -33 140 -40 85 -10
139 -26 139 -43 0 -19 88 -47 165 -53 44 -3 89 -8 101 -10 36 -8 45 -49 50
-229 4 -168 3 -172 -41 -403 -111 -578 -133 -748 -145 -1118 -15 -468 -23
-539 -64 -599 -51 -75 -38 -195 40 -370 158 -354 165 -373 184 -561 13 -135
29 -646 30 -970 0 -297 16 -598 36 -668 42 -150 77 -349 130 -732 25 -183 51
-303 85 -383 17 -41 28 -77 24 -80 -3 -4 -30 -9 -58 -13 -29 -3 1534 -6 3473
-5 l3525 1 17 80 c10 44 27 145 38 225 68 469 92 605 134 757 20 70 36 371 36
668 1 324 17 835 30 970 19 188 26 207 184 561 78 175 91 295 40 370 -41 60
-49 131 -64 599 -12 370 -34 540 -145 1118 -44 231 -45 235 -41 403 5 180 14
221 50 229 12 2 57 7 101 10 77 6 165 34 165 53 0 17 54 33 139 43 62 7 100
18 140 40 31 16 90 46 131 67 l75 37 193 3 192 4 0 -87 c0 -121 14 -144 107
-170 22 -6 22 -5 25 126 l3 132 260 118 c143 66 289 128 325 140 93 31 184 80
271 148 74 58 76 61 89 120 12 59 11 72 -74 528 -48 258 -114 590 -147 738
-33 149 -58 283 -56 300 2 16 -14 99 -36 185 -67 262 -87 353 -87 399 0 142
-178 699 -319 1002 -119 254 -192 358 -441 634 -173 191 -477 468 -659 600
-61 44 -568 306 -816 422 -174 81 -258 114 -405 161 -97 31 -407 165 -570 247
-66 33 -90 41 -90 30 0 -11 -24 -6 -112 26 -127 45 -248 63 -248 37 0 -17 29
-62 90 -139 93 -118 115 -200 107 -401 -5 -153 -23 -229 -92 -394 -129 -308
-306 -544 -540 -719 -137 -102 -402 -214 -645 -272 -186 -44 -413 -43 -785 3
-202 25 -335 67 -550 174 -161 80 -378 254 -521 418 -91 103 -212 282 -252
372 -40 87 -92 271 -98 345 -7 75 14 112 77 142 171 81 313 232 348 370 18 66
70 134 130 170 126 75 197 51 288 -97 125 -206 131 -209 348 -230 135 -13 173
-22 251 -61 54 -27 75 -31 175 -36 131 -7 246 9 283 38 41 32 77 41 212 49
172 10 240 32 342 112 43 32 109 80 147 105 204 134 546 470 672 658 40 60
196 350 245 455 14 30 67 143 117 250 51 107 103 232 118 277 24 78 24 84 9
108 -9 14 -22 25 -30 25 -20 0 -43 -31 -51 -70 -15 -70 -61 -139 -194 -289
-76 -86 -233 -228 -305 -277 -81 -54 -104 -27 -117 136 -13 167 -27 185 -101
134 -52 -36 -76 -92 -88 -204 -11 -109 -37 -192 -108 -340 -49 -102 -82 -203
-82 -251 0 -64 -124 -264 -218 -350 -75 -70 -116 -89 -214 -100 -85 -10 -134
-26 -175 -59 -34 -27 -55 -25 -92 6 -49 41 -90 136 -101 237 -20 172 -66 224
-212 242 -69 8 -158 62 -213 129 -68 83 -126 182 -145 246 -12 39 -33 82 -53
105 -50 59 -87 117 -87 136 0 25 52 39 177 48 134 10 205 38 298 120 112 99
200 134 375 151 150 15 198 28 217 57 21 32 21 125 -1 158 -29 44 -157 44
-219 -1 -66 -48 -91 -57 -152 -58 -71 0 -127 25 -196 89 -79 74 -120 90 -224
90 -88 -1 -93 -2 -220 -59 -167 -75 -241 -100 -367 -125 -207 -40 -324 -44
-388 -11 -61 31 -186 158 -211 214 -46 104 -52 477 -9 574 16 35 64 89 189
212 169 166 230 245 231 300 1 46 36 109 66 116 30 8 54 -14 54 -49 0 -49 45
-77 125 -77 73 0 133 28 191 88 49 52 55 55 78 44 14 -6 42 -26 63 -45 54 -48
98 -68 163 -74 86 -8 124 8 152 65 17 36 22 65 23 123 0 69 -4 84 -37 150 -29
57 -39 90 -43 144 -16 203 -23 216 -139 269 -39 18 -85 45 -103 60 -55 46 -93
55 -295 70 -200 15 -282 32 -312 65 -35 39 -47 158 -52 526 l-4 350 67 59 c38
32 149 131 247 219 l179 160 486 -6 c567 -8 670 -15 756 -57 33 -16 87 -32
120 -35 77 -9 135 -34 192 -85 129 -114 473 -264 730 -320 172 -37 261 -94
321 -207 46 -88 61 -162 72 -353 13 -221 23 -328 61 -615 41 -319 56 -405 69
-405 34 0 197 178 284 310 88 133 163 318 249 616 93 318 97 414 26 612 -93
263 -92 258 -93 457 -1 207 3 194 -114 364 -36 53 -85 139 -110 191 -24 52
-67 142 -94 199 -69 143 -144 221 -213 221 -16 0 -36 11 -51 28 -59 66 -73 77
-142 108 -85 39 -166 93 -274 180 -164 133 -426 266 -622 315 -122 31 -421 35
-614 9z m-1130 -10830 c49 -38 64 -137 128 -845 29 -324 90 -1135 90 -1195 0
-25 -14 -39 -103 -104 -239 -174 -366 -242 -657 -352 -188 -70 -213 -77 -296
-82 -105 -5 -149 6 -344 91 -322 139 -612 313 -684 410 -87 119 -113 194 -267
762 -156 577 -151 553 -177 930 l-17 241 165 -23 c91 -12 260 -41 375 -64 259
-52 339 -55 470 -17 93 28 168 43 391 78 154 24 323 64 483 114 232 74 395 94
443 56z m-2972 -2057 c24 -248 50 -967 50 -1398 0 -473 -30 -999 -71 -1270
-12 -78 -131 -492 -180 -625 -49 -136 -61 -141 -84 -35 -18 80 -17 115 8 290
29 198 59 615 167 2330 29 444 57 752 77 819 10 35 22 -6 33 -111z m6689 -128
c17 -129 39 -387 61 -730 108 -1715 138 -2132 167 -2330 25 -175 26 -210 8
-290 -23 -106 -35 -101 -84 35 -46 124 -167 544 -180 622 -13 75 -17 2751 -5
2783 11 27 20 1 33 -90z"/>
<path d="M7095 15864 c-75 -12 -124 -36 -168 -83 -25 -26 -52 -62 -61 -79 -15
-29 -15 -31 3 -37 43 -13 294 -24 556 -25 381 0 504 15 513 62 5 24 -38 107
-62 120 -61 33 -133 40 -441 43 -170 2 -323 1 -340 -1z"/>
<path d="M7130 15247 c-29 -15 -30 -38 -3 -136 16 -57 22 -66 48 -73 46 -13
140 1 177 26 42 28 58 60 58 118 0 69 -18 78 -150 78 -66 0 -114 -5 -130 -13z"/>
<path d="M6889 13355 c-57 -31 -40 -115 22 -115 81 0 155 90 100 120 -28 14
-91 12 -122 -5z"/>
<path d="M829 3564 c-32 -39 -29 -213 12 -579 40 -365 118 -829 244 -1460 101
-506 114 -582 160 -935 31 -239 75 -518 91 -572 5 -15 18 -18 90 -18 l84 0 -3
442 c-2 278 -7 471 -15 518 -6 41 -26 188 -43 325 -46 378 -99 637 -184 905
-18 58 -50 163 -70 234 -20 71 -45 141 -55 155 -28 37 -50 134 -50 216 0 122
-19 246 -44 295 -34 64 -44 108 -61 255 -17 146 -27 182 -56 213 -24 26 -80
30 -100 6z"/>
<path d="M10491 3408 c-29 -31 -39 -67 -56 -213 -17 -147 -27 -191 -61 -255
-25 -49 -44 -173 -44 -295 0 -82 -22 -179 -50 -216 -10 -14 -35 -84 -55 -155
-20 -71 -52 -176 -70 -234 -85 -268 -138 -527 -184 -905 -17 -137 -37 -284
-43 -325 -7 -44 -13 -225 -15 -443 l-3 -367 99 0 99 0 11 51 c6 28 29 189 52
357 51 391 63 459 164 967 224 1118 328 1952 256 2039 -20 24 -76 20 -100 -6z"/>
</g>
</svg>
